<svg width="24" height="24" viewBox="0 0 24 24" fill="none" xmlns="http://www.w3.org/2000/svg">
<path d="M5.34318 12C5.34318 11.4477 5.7909 11 6.34318 11H11V6.34314C11 5.79085 11.4477 5.34314 12 5.34314C12.5523 5.34314 13 5.79085 13 6.34314V11H17.6569C18.2092 11 18.6569 11.4477 18.6569 12C18.6569 12.5523 18.2092 13 17.6569 13H13V17.6568C13 18.2091 12.5523 18.6568 12 18.6568C11.4477 18.6568 11 18.2091 11 17.6568V13H6.34318C5.7909 13 5.34318 12.5523 5.34318 12Z" fill="#40B3FF"/>
<path fill-rule="evenodd" clip-rule="evenodd" d="M5.75565 1.02501C9.87238 0.564905 14.1276 0.564905 18.2443 1.02501C20.6795 1.29718 22.646 3.21537 22.9325 5.66465C23.4248 9.87388 23.4248 14.1261 22.9325 18.3354C22.646 20.7846 20.6795 22.7028 18.2443 22.975C14.1276 23.4351 9.87239 23.4351 5.75564 22.975C3.32047 22.7028 1.35394 20.7846 1.06747 18.3354C0.575165 14.1261 0.575165 9.87388 1.06747 5.66465C1.35394 3.21537 3.32047 1.29718 5.75565 1.02501ZM18.0222 3.01264C14.0531 2.56903 9.94689 2.56903 5.97779 3.01264C4.45188 3.18318 3.23048 4.38751 3.05393 5.89698C2.57968 9.95185 2.57968 14.0482 3.05393 18.103C3.23048 19.6125 4.45188 20.8168 5.97779 20.9874C9.94689 21.431 14.0531 21.431 18.0222 20.9874C19.5481 20.8168 20.7695 19.6125 20.946 18.103C21.4203 14.0482 21.4203 9.95185 20.946 5.89698C20.7695 4.38751 19.5481 3.18318 18.0222 3.01264Z" fill="#40B3FF"/>
</svg>
