<svg xmlns="http://www.w3.org/2000/svg" xmlns:xlink="http://www.w3.org/1999/xlink" viewBox="0 0 628.12 162.87"><defs><style>.cls-1{fill:url(#linear-gradient);}.cls-2{fill:url(#linear-gradient-2);}.cls-3{fill:url(#linear-gradient-3);}.cls-4{fill:url(#linear-gradient-4);}.cls-5{fill:url(#linear-gradient-5);}.cls-6{fill:url(#linear-gradient-6);}.cls-7{fill:url(#linear-gradient-7);}.cls-8{fill:url(#linear-gradient-8);}</style><linearGradient id="linear-gradient" x1="24.12" y1="50.32" x2="215.12" y2="308.77" gradientUnits="userSpaceOnUse"><stop offset="0" stop-color="#03bcfc"/><stop offset="0.45" stop-color="#318efe"/><stop offset="0.8" stop-color="#4e72ff"/><stop offset="1" stop-color="#5967ff"/></linearGradient><linearGradient id="linear-gradient-2" x1="102.95" y1="70.31" x2="259.57" y2="282.68" xlink:href="#linear-gradient"/><linearGradient id="linear-gradient-3" x1="190.91" y1="84.62" x2="286.7" y2="217.04" xlink:href="#linear-gradient"/><linearGradient id="linear-gradient-4" x1="249.89" y1="87.73" x2="377.28" y2="263.52" xlink:href="#linear-gradient"/><linearGradient id="linear-gradient-5" x1="314.76" y1="48.05" x2="410.15" y2="155.4" xlink:href="#linear-gradient"/><linearGradient id="linear-gradient-6" x1="401.17" y1="52.13" x2="501.27" y2="143.41" xlink:href="#linear-gradient"/><linearGradient id="linear-gradient-7" x1="461.39" y1="9.9" x2="565.82" y2="155.78" xlink:href="#linear-gradient"/><linearGradient id="linear-gradient-8" x1="506.99" y1="8.13" x2="671.42" y2="160.88" gradientUnits="userSpaceOnUse"><stop offset="0" stop-color="#03bcfc"/><stop offset="0.03" stop-color="#0ab5fc"/><stop offset="0.18" stop-color="#2799fd"/><stop offset="0.35" stop-color="#3d83fe"/><stop offset="0.52" stop-color="#4d73ff"/><stop offset="0.72" stop-color="#566aff"/><stop offset="1" stop-color="#5967ff"/></linearGradient></defs><title>Asset 1</title><g id="Layer_2" data-name="Layer 2"><g id="Layer_1-2" data-name="Layer 1"><path class="cls-1" d="M0,110.36l5.82-6.6A44.13,44.13,0,0,0,39,119c17,0,27.51-9,27.51-22,0-13.84-9-18.24-20.28-23.27L29.08,66.19C18.87,61.63,5.82,54.4,5.82,37.57c0-17,14.46-28.77,34-28.77A43.78,43.78,0,0,1,72.16,22.64l-5.35,6.13a36.77,36.77,0,0,0-27-11.48c-14.62,0-24.36,7.71-24.36,19.5,0,13.05,11.16,17.92,19.49,21.54L52,65.87c13.05,5.82,24.05,13,24.05,30.5C76.09,114,61.47,127.5,39,127.5,22.32,127.5,9.12,120.58,0,110.36Z"/><path class="cls-2" d="M86.47,41.66H94l1.1,12.74h.31c8.49-8.34,17.14-14.94,28.61-14.94,17.45,0,25.47,10.85,25.47,32.39v53.6h-9.12V73.1c0-17.45-5.5-25.47-18.39-25.47-9.75,0-16.66,5-26.41,15.1v62.72H86.47Z"/><path class="cls-3" d="M159.93,104.39c0-18.55,16.51-27.36,53.45-31.6.32-12.42-3.3-25.31-19.18-25.31-11,0-20.59,5.19-26.41,9.59l-4.09-6.61c6.45-4.4,18.08-11,31.76-11,20,0,27,14.31,27,32.86v53.13h-7.7l-1-10.69h-.31c-8.49,6.92-18.55,12.74-29.24,12.74C170.78,127.5,159.93,120,159.93,104.39Zm53.45,2.36V79.55c-33,3.77-44.33,11.48-44.33,24.37,0,11.47,7.86,15.87,17.14,15.87S203.48,115.39,213.38,106.75Z"/><path class="cls-4" d="M232.8,41.66h7.55l1.1,10.22h.31c8.18-6.29,17.77-12.42,28-12.42,22.32,0,33.64,17,33.64,42.76,0,28.61-17.29,45.28-36.95,45.28-7.86,0-16.19-3.62-24.68-10.22l.16,15.41v30.18H232.8Zm60.84,40.56c0-20.12-6.92-34.74-25.62-34.74-8,0-16.35,4.71-26.1,13.36v48.42c9,7.55,17.61,10.22,23.74,10.22C282,119.48,293.64,104.7,293.64,82.22Z"/><path class="cls-5" d="M320.21,9.12h23.27V106h47.16v19.49H320.21Z"/><path class="cls-6" d="M398.35,101.56C398.35,82.69,413.6,72.79,449,69c-.31-8.65-4.09-15.25-14.93-15.25-8.18,0-16,3.61-24.22,8.33l-8.33-15.25c10.38-6.45,23-11.63,36.79-11.63,22.32,0,33.8,13.36,33.8,38.83v51.4H453.22L451.49,116H451c-7.7,6.61-16.5,11.64-26.56,11.64C408.72,127.66,398.35,116.49,398.35,101.56Zm50.62-.63V83.16c-21.38,2.83-28.61,8.65-28.61,16.51,0,6.92,4.87,9.91,11.63,9.91C438.59,109.58,443.47,106.43,449,100.93Z"/><path class="cls-7" d="M484.27,37.42h18.86L504.7,53h.63c6.45-11.48,15.88-17.76,25-17.76a25,25,0,0,1,10.38,1.88l-4.09,20a27.57,27.57,0,0,0-9.12-1.42c-6.92,0-15.25,4.56-20.28,17.3v52.5h-23Z"/><path class="cls-8" d="M546.52,0H569V75.46h.63l30.5-38h25.16l-30.5,36,33.33,52h-25L581.74,89,569,103.44v22H546.52Z"/></g></g></svg>