<svg width="20" height="20" viewBox="0 0 20 20" fill="none" xmlns="http://www.w3.org/2000/svg">
<path d="M14.6774 12.9299C15.8878 11.2782 16.4299 9.2305 16.1953 7.19632C15.9607 5.16214 14.9667 3.29156 13.4121 1.95879C11.8575 0.626033 9.85709 -0.0706141 7.81095 0.00822737C5.76481 0.0870688 3.82388 0.935584 2.37649 2.38402C0.929091 3.83245 0.0819647 5.77398 0.00458746 7.82018C-0.0727898 9.86637 0.625288 11.8663 1.95916 13.4199C3.29303 14.9735 5.16433 15.9662 7.19868 16.1994C9.23302 16.4325 11.2804 15.8889 12.9312 14.6774H12.9299C12.9674 14.7274 13.0074 14.7749 13.0524 14.8211L17.8649 19.6336C18.0993 19.8682 18.4172 20 18.7488 20.0001C19.0804 20.0003 19.3985 19.8686 19.633 19.6343C19.8676 19.3999 19.9994 19.0819 19.9995 18.7503C19.9996 18.4187 19.868 18.1007 19.6337 17.8661L14.8212 13.0536C14.7765 13.0084 14.7284 12.9666 14.6774 12.9286V12.9299ZM14.9999 8.12488C14.9999 9.02772 14.8221 9.92172 14.4766 10.7558C14.1311 11.5899 13.6247 12.3478 12.9863 12.9862C12.3479 13.6246 11.59 14.1311 10.7559 14.4766C9.92174 14.8221 9.02774 14.9999 8.1249 14.9999C7.22206 14.9999 6.32807 14.8221 5.49395 14.4766C4.65984 14.1311 3.90195 13.6246 3.26354 12.9862C2.62514 12.3478 2.11873 11.5899 1.77323 10.7558C1.42773 9.92172 1.2499 9.02772 1.2499 8.12488C1.2499 6.30152 1.97423 4.55284 3.26354 3.26352C4.55286 1.97421 6.30154 1.24988 8.1249 1.24988C9.94827 1.24988 11.6969 1.97421 12.9863 3.26352C14.2756 4.55284 14.9999 6.30152 14.9999 8.12488Z" fill="#40B3FF"/>
</svg>
